<?xml version="1.0" encoding="utf-8"?>
<!-- Generator: Adobe Illustrator 23.1.0, SVG Export Plug-In . SVG Version: 6.00 Build 0)  -->
<svg version="1.1" id="Layer_1" xmlns="http://www.w3.org/2000/svg" xmlns:xlink="http://www.w3.org/1999/xlink" x="0px" y="0px"
	 viewBox="0 0 612 612" style="enable-background:new 0 0 612 612;" xml:space="preserve">
<style type="text/css">
	.st0{fill:#FF0000;}
	.st1{fill:#FFFFFF;}
</style>
<g>
	<path class="st0" d="M306,608c-80.1,0-155.5-31-212.4-87.4C36.2,463.9,4.4,388.2,4,307.5c-0.4-73.8,26-144.8,74.4-200.1l-0.6-0.6
		l14.6-14.4l14.4-14.6l0.6,0.6C162.4,30.4,232.7,4,306,4c80.1,0,155.5,31,212.5,87.4c57.3,56.8,89.1,132.4,89.5,213.1
		c0.4,80.7-30.6,156.7-87.4,214c-56.8,57.3-132.4,89.1-213.1,89.5L306,608z M107.8,140.8C68.9,187.4,47.7,246.3,48,307.3
		c0.3,68.9,27.5,133.6,76.5,182C173.1,537.5,237.6,564,306,564l1.3,0c31-0.2,61.2-5.7,89.7-16.4c27.2-10.2,52.3-24.9,74.6-43.7
		L107.8,140.8z M502.9,472.7c39.7-46.8,61.4-106.3,61.1-168c-0.3-68.9-27.5-133.6-76.5-182C438.9,74.5,374.4,48,306,48
		c-60.5,0-119,21.2-165.2,59.8L502.9,472.7z"/>
	<path class="st1" d="M306,8c79,0,153.5,30.6,209.7,86.2c56.6,56,87.9,130.7,88.3,210.3c0.4,79.6-30.2,154.6-86.2,211.2
		c-56,56.6-130.7,87.9-210.3,88.3c-0.5,0-1,0-1.5,0c0,0,0,0,0,0c-79,0-153.4-30.6-209.6-86.2C39.8,461.8,8.4,387.1,8,307.5
		c-0.4-74.6,26.5-145.1,75.9-200.2l-0.4-0.4l11.7-11.6l11.7-11.8l0.4,0.4C162,34.8,232,8,306,8 M503.1,478.6
		c42.3-48.1,65.2-109.3,64.8-173.9c-0.4-70-27.9-135.6-77.7-184.9C440.9,70.9,375.5,44,306,44c-63.4,0-123.5,22.4-171.1,63.6
		L503.1,478.6 M306,568c0.5,0,0.9,0,1.4,0c63.3-0.3,123-22.9,170.2-63.9l-370-369.1C66.1,182.9,43.7,243.4,44,307.3
		c0.4,70,27.9,135.6,77.7,184.9C171.1,541.1,236.5,568,306,568 M306,0c-37.8,0-74.6,6.8-109.4,20.1c-32.4,12.4-62.3,30.2-88.9,52.9
		l-0.8-0.8l-5.6,5.7L89.6,89.6l-11.7,11.6l-5.7,5.6l0.8,0.8c-22.9,26.8-40.8,56.9-53.2,89.6C6.5,232.4-0.2,269.5,0,307.5
		C0.4,389.3,32.6,466,90.7,523.5C148.4,580.6,224.8,612,306,612c0.5,0,1.1,0,1.6,0c81.7-0.4,158.4-32.6,215.9-90.7
		c57.5-58.1,88.9-135.1,88.5-216.8c-0.4-81.7-32.6-158.4-90.7-215.9C463.6,31.4,387.2,0,306,0L306,0z M146.7,108.1
		c21.3-17.2,45-30.7,70.6-40.2C245.6,57.3,275.4,52,306,52c67.4,0,130.8,26.1,178.7,73.5c48.2,47.7,75,111.4,75.3,179.2
		c0.2,31.1-5.2,61.5-15.9,90.3c-9.7,26-23.6,50.1-41.4,71.8L146.7,108.1L146.7,108.1z M306,560c-67.3,0-130.8-26.1-178.7-73.5
		c-48.2-47.7-75-111.4-75.3-179.2c-0.2-30.8,5.1-60.9,15.6-89.4c9.5-25.8,23.1-49.6,40.4-71.1l357.7,356.8
		c-21.2,17.2-44.7,30.7-70.1,40.3c-28.1,10.6-57.9,16-88.3,16.2C306.8,560,306.4,560,306,560L306,560L306,560z"/>
</g>
</svg>
